<?xml version="1.0" standalone="no"?>
<!DOCTYPE svg PUBLIC "-//W3C//DTD SVG 20010904//EN"
 "http://www.w3.org/TR/2001/REC-SVG-20010904/DTD/svg10.dtd">
<svg version="1.0" xmlns="http://www.w3.org/2000/svg"
 width="1024.000000pt" height="1024.000000pt" viewBox="0 0 1024.000000 1024.000000"
 preserveAspectRatio="xMidYMid meet">

<g transform="translate(0.000000,1024.000000) scale(0.100000,-0.100000)"
fill="#000000" stroke="none">
<path d="M5154 8092 c3 -32 5 -78 6 -104 0 -27 5 -48 10 -48 6 0 10 24 10 53
1 28 5 71 9 94 9 46 5 57 -23 60 -16 1 -18 -5 -12 -55z"/>
<path d="M5104 8096 c3 -27 7 -58 7 -70 1 -15 3 -13 9 9 12 48 11 70 -6 91
-14 18 -15 16 -10 -30z"/>
<path d="M4929 7944 c-11 -13 -10 -18 5 -26 15 -8 16 -12 5 -19 -11 -7 -10 -9
4 -9 9 0 17 5 17 10 0 6 7 10 15 10 20 0 19 13 -3 33 -23 21 -26 21 -43 1z"/>
<path d="M4483 7929 c23 -13 22 -29 -2 -29 -10 0 -21 -7 -25 -15 -3 -8 -1 -15
5 -15 6 0 7 -5 4 -11 -4 -6 -13 -8 -21 -5 -12 4 -14 -21 -12 -154 2 -88 6
-160 11 -160 4 0 7 57 8 128 1 156 2 166 36 200 l26 27 -16 -26 c-12 -20 -15
-58 -16 -177 l0 -152 26 0 c22 0 24 2 13 15 -10 12 -12 56 -6 194 6 158 4 179
-10 185 -25 10 -41 6 -21 -5z"/>
<path d="M5807 7890 c-3 -11 -2 -22 3 -25 4 -3 10 4 13 15 3 11 2 22 -3 25 -4
3 -10 -4 -13 -15z"/>
<path d="M5766 7882 c-3 -5 2 -37 10 -73 16 -64 15 -214 -1 -251 -5 -14 -2
-18 14 -18 20 0 21 4 21 151 0 134 -2 154 -19 175 -11 14 -22 21 -25 16z"/>
<path d="M5825 7550 c-3 -5 3 -10 15 -10 12 0 18 5 15 10 -3 6 -10 10 -15 10
-5 0 -12 -4 -15 -10z"/>
<path d="M4430 7490 l-65 -7 60 -2 c59 -3 60 -3 25 -14 -24 -7 -29 -12 -17
-14 16 -4 25 -43 10 -43 -5 0 -9 -14 -10 -31 -1 -17 -8 -37 -14 -45 -6 -8 -7
-14 -2 -14 5 0 10 -7 10 -15 0 -11 -11 -15 -39 -15 -21 0 -38 -4 -38 -10 0 -6
-65 -10 -172 -11 -95 0 -283 -4 -418 -8 l-245 -6 -76 -36 c-110 -53 -198 -138
-251 -246 l-42 -84 -7 -152 c-4 -84 -8 -257 -8 -384 l-1 -233 808 -2 c444 -1
1408 -1 2142 1 l1335 3 3 351 c2 297 0 364 -14 427 -39 177 -123 310 -271 430
-134 109 -311 169 -344 117 -10 -14 -59 1 -59 18 0 8 6 16 13 16 124 15 -1332
27 -1485 13 -51 -5 -67 -11 -71 -24 -8 -32 -110 -34 -105 -1 2 12 -9 17 -47
23 -63 8 -518 7 -605 -2z m-32 -316 c25 -17 29 -56 7 -74 -23 -19 -22 -452 1
-470 8 -8 20 -22 25 -32 9 -17 8 -18 -8 -9 -62 36 -60 27 -68 269 -6 202 -8
225 -26 243 -24 24 -24 44 1 69 24 24 38 25 68 4z m228 -10 c16 -24 16 -26 -5
-54 -19 -27 -21 -42 -22 -172 0 -85 -4 -135 -9 -123 -6 16 -9 10 -12 -25 -3
-25 -5 29 -6 120 -2 146 -4 168 -22 195 -25 37 -25 40 0 65 27 27 56 25 76 -6z
m-503 -59 c31 -30 61 -63 66 -74 7 -12 11 -99 11 -220 l0 -199 27 -32 c15 -18
28 -41 28 -51 2 -24 3 -24 -26 8 -18 20 -19 24 -4 13 18 -14 19 -14 7 2 -8 9
-19 15 -26 12 -34 -13 -41 25 -46 241 -6 239 0 223 -92 292 -37 28 -45 40 -36
50 18 22 34 15 91 -42z m-75 -131 c13 -9 22 -26 22 -40 0 -28 -40 -74 -65 -74
-23 0 -55 37 -55 65 0 29 32 65 58 65 10 0 28 -7 40 -16z m-350 -33 c69 -35
102 -93 102 -178 0 -70 -21 -109 -81 -152 -51 -38 -93 -46 -150 -31 -99 26
-154 102 -147 202 5 64 36 113 98 156 42 28 125 30 178 3z m3097 -25 c13 -13
26 -21 29 -18 3 3 6 -2 6 -11 0 -9 5 -17 12 -17 6 0 9 -3 5 -6 -3 -4 -24 8
-47 26 -22 17 -40 29 -40 25 0 -4 -6 -3 -12 2 -7 6 -22 9 -33 7 -65 -10 -84
-16 -106 -37 -13 -12 -27 -21 -31 -19 -5 1 -7 -1 -7 -5 4 -22 -3 -33 -18 -33
-10 0 -14 4 -8 8 6 4 11 14 13 22 10 44 78 79 155 80 48 0 62 -4 82 -24z m-27
-142 c6 -59 -66 -97 -110 -57 -30 27 -23 70 14 93 27 16 35 17 62 6 23 -9 32
-20 34 -42z m-203 -83 c3 -5 2 -12 -3 -15 -5 -3 -9 1 -9 9 0 17 3 19 12 6z
m-2762 -176 l50 -55 120 0 119 0 44 -47 c54 -60 43 -85 -14 -30 l-38 37 -124
0 -125 1 -64 59 c-55 50 -63 61 -51 74 19 24 28 20 83 -39z m478 -18 c-10 -9
-11 -8 -5 6 3 10 9 15 12 12 3 -3 0 -11 -7 -18z m-916 -177 c17 -19 31 -20
319 -20 177 0 307 -4 316 -10 13 -9 13 -10 0 -10 -10 -1 -8 -5 7 -13 17 -10
-43 -11 -298 -9 -275 2 -323 1 -341 -13 -27 -18 -69 -20 -86 -3 -17 17 -15 64
4 82 21 22 57 20 79 -4z"/>
<path d="M3545 6882 c-125 -79 -71 -262 77 -262 81 0 153 99 130 178 -18 60
-62 95 -124 99 -40 3 -61 -1 -83 -15z m98 -48 c18 -9 36 -22 40 -28 10 -14 0
-86 -15 -103 -17 -21 -79 -16 -105 9 -38 36 -28 115 17 131 24 9 29 8 63 -9z"/>
<path d="M6788 7473 c7 -3 16 -2 19 1 4 3 -2 6 -13 5 -11 0 -14 -3 -6 -6z"/>
<path d="M2595 6750 c3 -5 18 -10 33 -10 21 0 24 2 12 10 -20 13 -53 13 -45 0z"/>
<path d="M7793 6207 c-18 -7 -33 -16 -34 -22 -1 -22 -48 -34 -134 -35 -110 0
-165 -9 -165 -25 0 -17 91 -25 278 -25 143 0 154 1 146 18 -4 9 -7 30 -6 46 3
53 -22 66 -85 43z m47 -27 c-20 -13 -43 -13 -35 0 3 6 16 10 28 10 18 0 19 -2
7 -10z"/>
<path d="M2475 6190 c3 -5 15 -10 26 -10 11 0 17 5 14 10 -3 6 -15 10 -26 10
-11 0 -17 -4 -14 -10z"/>
<path d="M2470 6141 c-42 -8 -60 -18 -60 -33 0 -8 56 -9 188 -5 196 6 217 8
229 21 4 4 -19 6 -52 4 -33 -2 -94 2 -135 9 -82 13 -117 14 -170 4z"/>
<path d="M2185 6006 c-42 -18 -92 -78 -105 -125 -7 -27 -10 -252 -8 -694 l3
-653 27 -41 c15 -22 44 -51 65 -64 l38 -24 2942 0 2941 0 43 30 c85 60 80 15
79 776 -1 755 4 710 -74 773 l-38 31 -2941 2 c-2416 2 -2947 0 -2972 -11z
m1617 -377 c29 -15 50 -72 39 -103 -23 -58 -100 -74 -145 -30 -35 36 -34 77 3
115 31 31 67 37 103 18z m318 -337 c3 -207 9 -345 15 -351 6 -5 24 -11 40 -13
29 -3 30 -4 30 -58 l0 -55 -67 0 c-76 0 -111 19 -140 76 -16 30 -18 71 -18
386 0 228 4 353 10 355 6 2 36 3 68 2 l57 0 5 -342z m888 342 l52 -7 0 -338
c0 -338 0 -338 22 -353 12 -9 31 -16 41 -16 16 0 18 -7 15 -52 l-3 -53 -55 -3
c-68 -3 -116 19 -145 68 -19 33 -20 54 -23 384 -2 192 -1 355 2 363 6 15 18
16 94 7z m2032 -165 l0 -161 40 35 c104 89 255 67 320 -46 l30 -52 0 -217 0
-218 -70 0 -70 0 0 173 c0 191 -8 236 -48 268 -39 30 -112 23 -153 -17 -42
-40 -49 -78 -49 -261 l0 -163 -70 0 -70 0 0 410 0 410 70 0 70 0 0 -161z
m-4008 -36 l3 -158 173 -3 172 -2 0 160 0 160 75 0 75 0 -2 -387 -3 -388 -70
0 -70 0 -3 163 -2 162 -173 -2 -172 -3 -3 -162 -2 -163 -69 0 c-54 0 -70 4
-75 16 -8 21 -8 749 1 757 3 4 37 7 74 7 l68 0 3 -157z m2728 92 l0 -65 -120
0 -120 0 0 -325 0 -326 -72 3 -73 3 -3 322 -2 322 -113 3 -112 3 -3 63 -3 62
311 0 310 0 0 -65z m-1128 -145 c48 -14 94 -52 118 -101 21 -40 27 -149 22
-372 l-2 -98 -62 3 c-60 3 -63 4 -68 31 l-5 29 -27 -21 c-63 -50 -163 -66
-231 -37 -133 57 -143 246 -17 316 39 21 61 25 158 28 109 4 112 5 112 27 0
81 -130 117 -249 69 -18 -8 -37 -14 -41 -14 -3 0 -12 23 -19 52 -13 59 -11 61
54 79 22 5 45 12 50 14 22 8 173 4 207 -5z m1453 -9 c49 -22 91 -63 116 -113
20 -39 44 -181 34 -198 -4 -6 -83 -10 -201 -10 -213 0 -211 1 -179 -60 24 -46
81 -70 167 -70 40 1 91 7 113 15 21 8 39 13 40 12 0 -1 6 -18 13 -37 7 -19 14
-39 15 -45 4 -21 -91 -56 -167 -62 -152 -12 -266 46 -317 159 -19 43 -24 70
-24 138 1 77 4 91 34 147 55 102 122 141 241 142 53 0 87 -5 115 -18z m643 4
c28 -9 54 -19 56 -24 5 -7 -28 -95 -39 -109 -2 -2 -24 4 -49 12 -100 34 -172
9 -213 -74 -37 -72 -27 -157 25 -213 46 -49 141 -59 213 -21 l29 15 20 -46
c11 -26 20 -53 20 -60 0 -26 -89 -50 -185 -50 -73 0 -99 5 -137 24 -230 111
-201 478 42 552 43 13 164 10 218 -6z m-2898 -280 l0 -286 -67 3 -68 3 -3 283
-2 282 70 0 70 0 0 -285z"/>
<path d="M4477 5055 c-44 -15 -40 -13 -56 -42 -16 -32 -3 -71 30 -88 83 -43
179 16 179 110 l0 35 -57 0 c-32 -1 -75 -7 -96 -15z"/>
<path d="M5903 5260 c-32 -19 -63 -66 -63 -95 0 -13 19 -15 126 -15 l127 0 -6
38 c-13 81 -109 118 -184 72z"/>
<path d="M8465 5160 l-120 -5 131 -9 c135 -8 229 -2 203 15 -8 5 -32 8 -54 7
-22 -1 -94 -4 -160 -8z"/>
<path d="M1635 5150 c25 -11 241 -11 275 0 15 5 -40 8 -135 8 -98 0 -152 -3
-140 -8z"/>
<path d="M1571 5115 c-2 -44 7 -46 196 -48 194 -2 208 -6 216 -55 2 -15 5 -2
6 29 l1 56 -61 7 c-96 10 -268 7 -290 -5 -25 -13 -56 -3 -62 19 -4 14 -5 13
-6 -3z"/>
<path d="M1605 5120 c-8 -13 15 -13 35 0 12 8 11 10 -7 10 -12 0 -25 -4 -28
-10z"/>
<path d="M8420 5100 l-95 -6 90 -3 c50 -1 122 -5 161 -9 101 -11 139 1 53 16
-36 7 -77 11 -90 10 -13 -1 -67 -5 -119 -8z"/>
<path d="M2633 4303 c20 -2 54 -2 75 0 20 2 3 4 -38 4 -41 0 -58 -2 -37 -4z"/>
<path d="M7703 4298 c53 -5 128 -5 185 0 92 9 87 9 -88 9 -169 0 -177 0 -97
-9z"/>
<path d="M2821 4283 c7 -10 15 -20 16 -22 2 -2 3 5 3 17 0 14 -6 22 -16 22
-14 0 -15 -3 -3 -17z"/>
<path d="M2887 4293 c-9 -9 -8 -499 2 -708 8 -154 11 -178 39 -253 43 -116 94
-195 183 -284 126 -124 238 -181 419 -212 83 -14 267 -16 1620 -16 1672 0
1612 -2 1777 59 212 78 405 293 464 518 19 71 21 117 26 491 l6 412 -2265 0
c-1246 0 -2268 -3 -2271 -7z m778 -575 c14 -6 25 -15 25 -20 0 -5 5 -6 10 -3
6 3 10 1 10 -5 0 -6 5 -8 10 -5 6 4 9 1 8 -7 -2 -7 3 -12 10 -10 8 1 11 -2 7
-8 -4 -6 -17 -2 -33 10 -15 11 -51 23 -79 27 -44 5 -60 2 -102 -21 -51 -26
-66 -23 -33 7 49 44 116 59 167 35z m2952 -33 c0 -8 -4 -12 -9 -9 -5 3 -6 10
-3 15 9 13 12 11 12 -6z m233 -38 c15 -24 20 -50 20 -106 0 -41 -3 -71 -7 -67
-4 3 -6 27 -4 53 1 33 -5 61 -24 99 -15 30 -31 54 -36 54 -5 0 -9 5 -9 10 0
19 40 -10 60 -43z m-98 -58 c16 -9 19 -17 14 -41 -9 -44 -24 -58 -62 -58 -39
0 -63 28 -56 66 7 38 62 56 104 33z m-3137 -51 c-7 -35 -25 -45 -20 -12 2 16
4 33 4 37 1 5 5 6 10 2 6 -3 8 -15 6 -27z m-35 -6 c0 -21 -2 -22 -15 -12 -8 7
-15 18 -15 25 0 6 7 12 15 12 9 0 15 -10 15 -25z m3064 -126 c19 -9 50 -16 71
-16 21 0 34 -4 30 -10 -9 -15 -82 -12 -114 5 -35 17 -83 73 -75 86 3 5 16 -4
29 -20 14 -16 40 -36 59 -45z m202 52 c-1 -7 -4 -13 -8 -13 -3 0 -16 -9 -29
-20 -16 -13 -14 -8 5 13 33 36 35 37 32 20z"/>
<path d="M2407 4065 c-21 -20 -22 -45 -3 -71 13 -18 28 -19 225 -19 149 0 211
3 211 11 0 17 -60 24 -210 24 -85 0 -140 -4 -147 -11 -20 -20 -58 -6 -60 21
-3 25 -3 25 7 3 11 -26 36 -29 64 -8 11 8 36 15 57 15 20 0 52 3 70 7 31 6 29
8 -36 19 -145 27 -160 28 -178 9z"/>
<path d="M7565 4040 c28 -12 57 -12 50 0 -3 6 -21 10 -38 9 -27 0 -29 -2 -12
-9z"/>
<path d="M7660 4040 c-10 -7 9 -10 63 -10 45 0 77 4 77 10 0 13 -120 13 -140
0z"/>
<path d="M7470 3997 c0 -11 38 -15 202 -21 110 -3 203 -4 206 -1 9 9 -8 19
-41 23 -18 3 -107 7 -199 9 -140 4 -168 2 -168 -10z"/>
<path d="M2530 3609 c0 -5 5 -7 10 -4 6 3 10 8 10 11 0 2 -4 4 -10 4 -5 0 -10
-5 -10 -11z"/>
<path d="M4497 2783 c-4 -3 -7 -68 -7 -144 0 -81 -4 -140 -10 -144 -5 -3 -11
-21 -11 -38 l-1 -32 -8 30 c-4 17 -8 96 -9 178 -1 121 -4 147 -15 147 -12 0
-13 -6 -4 -31 7 -21 9 -80 5 -170 -3 -76 -2 -152 3 -169 16 -56 59 -79 79 -41
6 10 8 21 5 23 -7 8 -23 350 -17 365 4 10 57 13 217 14 140 1 196 4 166 10
-55 9 -384 12 -393 2z"/>
<path d="M5425 2780 c-34 -5 -5 -7 95 -8 97 -1 140 2 130 8 -17 11 -147 11
-225 0z"/>
<path d="M5844 2781 c-2 -2 -4 -14 -4 -25 1 -19 2 -19 11 -3 9 16 39 17 391
17 210 0 379 2 376 5 -6 6 -768 12 -774 6z"/>
<path d="M5771 2763 c19 -22 19 -224 0 -321 -14 -69 -13 -73 5 -87 40 -30 84
-12 84 36 2 82 -14 298 -21 293 -5 -3 -9 -53 -10 -112 -1 -136 -17 -98 -18 44
-1 132 -8 164 -33 164 -18 0 -19 -2 -7 -17z"/>
<path d="M5168 2660 c-4 -14 -8 -112 -8 -218 0 -126 -3 -191 -10 -187 -5 3
-10 2 -10 -4 0 -5 6 -12 13 -14 10 -4 10 -6 0 -6 -14 -1 -18 -31 -4 -31 11 0
2 -48 -11 -56 -5 -3 -4 -12 4 -21 10 -13 9 -15 -7 -12 -19 4 -20 13 -19 159
l2 155 -8 -110 c-4 -60 -11 -129 -15 -153 -10 -54 12 -82 61 -82 28 0 35 5 40
25 3 14 3 35 -1 48 -4 12 -11 137 -14 277 -3 140 -9 244 -13 230z"/>
<path d="M6926 2431 c-4 -7 -5 -15 -2 -18 9 -9 19 4 14 18 -4 11 -6 11 -12 0z"/>
</g>
</svg>
