<?xml version="1.0" standalone="no"?>
<!DOCTYPE svg PUBLIC "-//W3C//DTD SVG 20010904//EN"
 "http://www.w3.org/TR/2001/REC-SVG-20010904/DTD/svg10.dtd">
<svg version="1.0" xmlns="http://www.w3.org/2000/svg"
 width="1024.000000pt" height="1024.000000pt" viewBox="0 0 1024.000000 1024.000000"
 preserveAspectRatio="xMidYMid meet">

<g transform="translate(0.000000,1024.000000) scale(0.100000,-0.100000)"
fill="#000000" stroke="none">
<path d="M5252 6177 l2 -352 6 332 c3 227 9 336 16 343 8 8 56 11 147 8 103
-2 133 0 126 9 -7 8 -57 12 -155 12 l-144 1 2 -353z"/>
<path d="M5389 6404 c-10 -13 -10 -17 2 -25 9 -6 10 -9 2 -9 -7 0 -20 -15 -30
-32 -16 -30 -18 -70 -18 -443 -1 -225 -5 -420 -9 -432 -5 -13 -16 -23 -25 -23
-9 -1 -295 -1 -636 0 l-620 0 -3 22 c-3 17 -6 18 -13 7 -6 -10 -9 -3 -8 21 0
29 2 31 9 15 6 -13 8 5 8 55 0 55 -2 67 -8 45 -6 -23 -8 -13 -9 41 l-1 72 -47
-6 c-27 -2 -50 -6 -51 -8 -2 -1 -7 -67 -11 -146 -8 -160 1 -228 28 -228 9 0
22 -5 28 -11 8 -8 20 -8 46 0 25 9 42 9 63 1 21 -8 220 -11 679 -8 358 2 652
5 655 8 3 3 14 10 25 16 12 7 23 27 27 50 4 21 7 215 6 429 0 215 0 395 1 401
1 14 4 15 176 20 133 4 157 2 210 -16 58 -20 60 -20 85 -2 39 30 46 120 12
155 -25 25 -93 27 -140 4 -20 -10 -72 -14 -194 -13 -160 1 -199 7 -168 26 11
7 8 11 -13 19 -37 14 -42 14 -58 -5z"/>
<path d="M4812 5978 c1 -153 6 -139 10 35 2 59 0 107 -4 107 -5 0 -7 -64 -6
-142z"/>
<path d="M4179 6076 c-3 -3 -259 -10 -586 -16 -7 0 -22 -19 -33 -42 -38 -78
-23 -364 23 -453 49 -94 50 -101 44 -272 -5 -146 -4 -164 12 -185 21 -26 86
-47 146 -48 22 0 506 -2 1075 -6 569 -3 1033 -4 1030 -1 -3 3 -322 8 -710 12
-674 6 -895 13 -554 17 124 1 143 3 84 8 l-75 6 65 5 c59 5 55 5 -40 9 -85 2
-96 4 -60 10 25 4 39 8 33 8 -7 1 -13 8 -13 16 0 25 -111 35 -430 40 -173 2
-333 9 -355 15 -65 16 -76 39 -69 136 7 87 -15 237 -41 280 -25 41 -39 102
-39 175 -1 69 14 129 32 131 4 0 47 2 96 4 79 3 89 1 93 -16 4 -13 10 -16 22
-10 9 5 74 11 146 15 109 6 132 10 147 26 19 20 25 70 8 70 -5 0 -10 11 -10
25 0 21 -30 51 -41 41z"/>
<path d="M4801 5820 c-2 -28 -19 -43 -57 -50 l-39 -8 37 -1 c30 -1 41 4 54 24
9 13 14 30 11 37 -4 9 -6 9 -6 -2z"/>
<path d="M4040 5754 c0 -12 4 -14 13 -7 6 6 19 13 27 16 9 3 3 6 -12 6 -20 1
-28 -4 -28 -15z"/>
<path d="M4173 5763 c9 -2 23 -2 30 0 6 3 -1 5 -18 5 -16 0 -22 -2 -12 -5z"/>
<path d="M4373 5763 c9 -2 23 -2 30 0 6 3 -1 5 -18 5 -16 0 -22 -2 -12 -5z"/>
<path d="M6516 5701 c-4 -7 -5 -15 -2 -18 9 -9 19 4 14 18 -4 11 -6 11 -12 0z"/>
<path d="M6082 5580 c0 -19 2 -27 5 -17 2 9 2 25 0 35 -3 9 -5 1 -5 -18z"/>
<path d="M6240 5514 c0 -14 3 -14 15 -4 8 7 15 14 15 16 0 2 -7 4 -15 4 -8 0
-15 -7 -15 -16z"/>
<path d="M6460 5523 c24 -3 50 -9 58 -15 15 -13 27 -4 17 11 -3 6 -32 10 -63
9 -54 -1 -54 -2 -12 -5z"/>
<path d="M6082 5480 c0 -14 2 -19 5 -12 2 6 2 18 0 25 -3 6 -5 1 -5 -13z"/>
<path d="M6075 5220 c-3 -5 -1 -10 4 -10 6 0 11 5 11 10 0 6 -2 10 -4 10 -3 0
-8 -4 -11 -10z"/>
<path d="M6615 5061 c-27 -6 -28 -7 -8 -13 12 -3 30 0 40 8 19 14 14 15 -32 5z"/>
<path d="M7135 4390 c-3 -11 -2 -28 4 -37 8 -15 10 -11 11 20 0 41 -5 47 -15
17z"/>
<path d="M3152 4375 c0 -16 2 -22 5 -12 2 9 2 23 0 30 -3 6 -5 -1 -5 -18z"/>
<path d="M3332 4365 c0 -16 2 -22 5 -12 2 9 2 23 0 30 -3 6 -5 -1 -5 -18z"/>
<path d="M3412 4365 c0 -16 2 -22 5 -12 2 9 2 23 0 30 -3 6 -5 -1 -5 -18z"/>
<path d="M4118 4383 c7 -3 16 -2 19 1 4 3 -2 6 -13 5 -11 0 -14 -3 -6 -6z"/>
<path d="M2960 4370 c0 -5 5 -10 10 -10 6 0 10 5 10 10 0 6 -4 10 -10 10 -5 0
-10 -4 -10 -10z"/>
<path d="M7210 4365 c0 -8 2 -15 4 -15 2 0 6 7 10 15 3 8 1 15 -4 15 -6 0 -10
-7 -10 -15z"/>
<path d="M3175 4313 c5 -12 20 -24 32 -26 19 -3 23 0 23 22 0 23 -4 26 -33 26
-30 0 -32 -2 -22 -22z"/>
<path d="M4087 4316 c-4 -10 -5 -21 -2 -24 9 -9 17 6 13 25 -3 17 -4 17 -11
-1z"/>
<path d="M5101 4270 c0 -42 1 -44 14 -26 8 11 15 23 15 26 0 3 -7 15 -15 26
-13 18 -14 16 -14 -26z"/>
<path d="M4170 4290 c0 -5 5 -10 11 -10 5 0 7 5 4 10 -3 6 -8 10 -11 10 -2 0
-4 -4 -4 -10z"/>
<path d="M5480 4255 c0 -8 4 -15 9 -15 5 0 14 7 21 15 10 13 9 15 -9 15 -12 0
-21 -6 -21 -15z"/>
<path d="M6251 4135 c0 -87 4 -132 9 -120 12 28 12 227 0 245 -6 10 -10 -31
-9 -125z"/>
<path d="M6960 4261 c0 -5 7 -14 15 -21 13 -10 15 -9 15 9 0 12 -6 21 -15 21
-8 0 -15 -4 -15 -9z"/>
<path d="M7210 4118 c0 -102 4 -148 10 -138 13 20 13 277 0 285 -7 4 -10 -47
-10 -147z"/>
<path d="M3964 4146 c1 -97 4 -120 16 -124 12 -4 13 -2 3 9 -7 9 -14 58 -16
125 l-3 109 0 -119z"/>
<path d="M2760 4225 c0 -8 7 -15 16 -15 14 0 14 3 4 15 -7 8 -14 15 -16 15 -2
0 -4 -7 -4 -15z"/>
<path d="M3635 4230 c11 -5 27 -9 35 -9 13 -1 13 0 0 9 -8 5 -24 9 -35 9 l-20
0 20 -9z"/>
<path d="M4077 4224 c-7 -8 4 -44 14 -44 12 0 12 37 0 44 -4 3 -11 3 -14 0z"/>
<path d="M4170 4214 c0 -14 3 -14 15 -4 8 7 15 14 15 16 0 2 -7 4 -15 4 -8 0
-15 -7 -15 -16z"/>
<path d="M7143 4175 c0 -33 2 -45 4 -27 2 18 2 45 0 60 -2 15 -4 0 -4 -33z"/>
<path d="M4953 4208 c-35 -17 -27 -31 13 -25 42 7 49 11 39 26 -8 13 -23 13
-52 -1z"/>
<path d="M6560 4202 c6 -13 14 -21 18 -18 3 4 -2 14 -12 24 -18 16 -18 16 -6
-6z"/>
<path d="M7385 4194 c-26 -28 -34 -94 -16 -122 5 -8 6 6 4 35 -5 42 -1 53 22
81 32 39 24 43 -10 6z"/>
<path d="M4376 4188 c-22 -30 -20 -48 4 -48 16 0 20 7 20 35 0 41 -3 43 -24
13z"/>
<path d="M4760 4195 c-7 -9 -11 -18 -8 -20 3 -3 11 1 18 10 7 9 11 18 8 20 -3
3 -11 -1 -18 -10z"/>
<path d="M5236 4197 c3 -10 9 -15 12 -12 3 3 0 11 -7 18 -10 9 -11 8 -5 -6z"/>
<path d="M5865 4179 c-9 -17 -14 -33 -11 -37 3 -3 7 -3 9 -1 26 43 36 69 28
69 -6 0 -18 -14 -26 -31z"/>
<path d="M6811 4192 c-17 -31 -13 -40 5 -14 9 13 14 26 11 29 -3 2 -10 -4 -16
-15z"/>
<path d="M3698 4176 c-3 -15 -1 -29 3 -32 14 -8 22 23 11 42 -8 14 -10 13 -14
-10z"/>
<path d="M5110 4181 c-5 -11 -9 -62 -8 -113 l1 -93 7 95 c4 52 11 103 15 113
10 23 -2 22 -15 -2z"/>
<path d="M6414 4175 c-9 -14 -15 -27 -13 -30 3 -2 12 10 21 26 21 36 15 39 -8
4z"/>
<path d="M6960 4191 c0 -6 4 -13 10 -16 6 -3 7 1 4 9 -7 18 -14 21 -14 7z"/>
<path d="M4522 4170 c-16 -27 -15 -30 8 -30 21 0 23 4 12 32 -7 17 -8 16 -20
-2z"/>
<path d="M3536 4154 c-8 -22 1 -31 16 -16 9 9 9 15 1 23 -7 7 -12 5 -17 -7z"/>
<path d="M5766 4142 c-4 -13 -2 -37 4 -58 16 -47 18 -41 11 26 -5 44 -8 50
-15 32z"/>
<path d="M2760 4130 c0 -5 7 -7 15 -4 8 4 15 8 15 10 0 2 -7 4 -15 4 -8 0 -15
-4 -15 -10z"/>
<path d="M6120 4114 c0 -14 4 -23 10 -19 6 3 10 15 10 26 0 10 -4 19 -10 19
-5 0 -10 -12 -10 -26z"/>
<path d="M3690 4101 c0 -6 5 -13 10 -16 6 -3 10 1 10 9 0 9 -4 16 -10 16 -5 0
-10 -4 -10 -9z"/>
<path d="M4366 4075 c4 -8 7 -15 9 -15 2 0 5 7 9 15 3 9 0 15 -9 15 -9 0 -12
-6 -9 -15z"/>
<path d="M4550 4080 c20 -13 40 -13 40 0 0 6 -12 10 -27 10 -22 0 -25 -2 -13
-10z"/>
<path d="M3561 4054 c-1 -30 30 -54 70 -53 19 1 25 3 14 6 -11 2 -30 6 -42 8
-12 3 -26 17 -31 32 -9 23 -11 25 -11 7z"/>
<path d="M6720 4061 c0 -6 4 -13 10 -16 6 -3 7 1 4 9 -7 18 -14 21 -14 7z"/>
<path d="M3153 4020 c0 -25 2 -35 4 -22 2 12 2 32 0 45 -2 12 -4 2 -4 -23z"/>
<path d="M4290 4051 c0 -6 4 -13 10 -16 6 -3 7 1 4 9 -7 18 -14 21 -14 7z"/>
<path d="M7142 4020 c0 -19 2 -27 5 -17 2 9 2 25 0 35 -3 9 -5 1 -5 -18z"/>
<path d="M4170 4030 c0 -5 10 -10 23 -10 18 0 19 2 7 10 -19 13 -30 13 -30 0z"/>
<path d="M4460 4020 l-35 -7 42 -2 c23 0 45 4 48 9 7 11 -3 11 -55 0z"/>
<path d="M4959 3999 c-19 -16 -20 -19 -6 -15 10 3 32 6 48 6 19 0 29 5 29 15
0 22 -44 19 -71 -6z"/>
<path d="M7053 3985 c0 -22 2 -30 4 -17 2 12 2 30 0 40 -3 9 -5 -1 -4 -23z"/>
<path d="M3801 3994 c0 -11 3 -14 6 -6 3 7 2 16 -1 19 -3 4 -6 -2 -5 -13z"/>
<path d="M4261 3994 c0 -11 3 -14 6 -6 3 7 2 16 -1 19 -3 4 -6 -2 -5 -13z"/>
<path d="M6953 3988 l-22 -24 20 -12 c26 -17 31 -12 27 28 l-3 32 -22 -24z"/>
<path d="M4545 3975 c-45 -28 -41 -32 10 -11 19 8 35 20 35 25 0 14 2 15 -45
-14z"/>
<path d="M7560 3985 c-16 -19 0 -19 26 0 16 12 16 14 3 15 -9 0 -22 -7 -29
-15z"/>
<path d="M3697 3984 c-13 -13 -7 -24 14 -24 11 0 19 5 17 12 -5 14 -22 21 -31
12z"/>
<path d="M6045 3980 c-3 -5 -1 -10 4 -10 6 0 11 5 11 10 0 6 -2 10 -4 10 -3 0
-8 -4 -11 -10z"/>
<path d="M6780 3980 c0 -12 28 -25 36 -17 3 3 -4 10 -15 17 -15 7 -21 7 -21 0z"/>
<path d="M3532 3964 c10 -10 20 -16 22 -13 3 3 -5 11 -17 18 -21 13 -21 12 -5
-5z"/>
<path d="M3015 3950 c3 -5 8 -10 11 -10 2 0 4 5 4 10 0 6 -5 10 -11 10 -5 0
-7 -4 -4 -10z"/>
<path d="M3350 3949 c0 -5 5 -7 10 -4 6 3 10 8 10 11 0 2 -4 4 -10 4 -5 0 -10
-5 -10 -11z"/>
<path d="M4188 3943 c7 -3 16 -2 19 1 4 3 -2 6 -13 5 -11 0 -14 -3 -6 -6z"/>
<path d="M6915 3900 c-11 -4 -38 -6 -59 -3 -47 7 -43 -12 5 -22 31 -7 89 10
89 26 0 11 -8 10 -35 -1z"/>
<path d="M6945 3830 c-3 -5 -2 -10 4 -10 5 0 13 5 16 10 3 6 2 10 -4 10 -5 0
-13 -4 -16 -10z"/>
</g>
</svg>
